%TF.GenerationSoftware,KiCad,Pcbnew,(6.0.10)*%
%TF.CreationDate,2023-02-17T10:23:32-08:00*%
%TF.ProjectId,ExerciseII,45786572-6369-4736-9549-492e6b696361,rev?*%
%TF.SameCoordinates,Original*%
%TF.FileFunction,Copper,L2,Bot*%
%TF.FilePolarity,Positive*%
%FSLAX46Y46*%
G04 Gerber Fmt 4.6, Leading zero omitted, Abs format (unit mm)*
G04 Created by KiCad (PCBNEW (6.0.10)) date 2023-02-17 10:23:32*
%MOMM*%
%LPD*%
G01*
G04 APERTURE LIST*
%TA.AperFunction,ComponentPad*%
%ADD10R,3.000000X3.000000*%
%TD*%
%TA.AperFunction,ComponentPad*%
%ADD11C,3.000000*%
%TD*%
%TA.AperFunction,ViaPad*%
%ADD12C,0.800000*%
%TD*%
%TA.AperFunction,Conductor*%
%ADD13C,0.254000*%
%TD*%
G04 APERTURE END LIST*
D10*
%TO.P,J1,1,Pin_1*%
%TO.N,+9V*%
X139700000Y-68580000D03*
D11*
%TO.P,J1,2,Pin_2*%
%TO.N,GND*%
X144780000Y-68580000D03*
%TD*%
D12*
%TO.N,/pin_2*%
X149860000Y-83820000D03*
X134620000Y-81280000D03*
%TO.N,GND*%
X137160000Y-88900000D03*
X134620000Y-78740000D03*
%TO.N,+9V*%
X147320000Y-76200000D03*
X139700000Y-86360000D03*
%TO.N,/pin_7*%
X134620000Y-83820000D03*
X147320000Y-81280000D03*
%TO.N,/pin_3*%
X137160000Y-83820000D03*
X162560000Y-83820000D03*
%TD*%
D13*
%TO.N,/pin_2*%
X160020000Y-81280000D02*
X152400000Y-81280000D01*
X124460000Y-91440000D02*
X129540000Y-96520000D01*
X137160000Y-76200000D02*
X129540000Y-76200000D01*
X137160000Y-78740000D02*
X137160000Y-76200000D01*
X152400000Y-81280000D02*
X149860000Y-83820000D01*
X124460000Y-81280000D02*
X124460000Y-91440000D01*
X134620000Y-81280000D02*
X137160000Y-78740000D01*
X165100000Y-96520000D02*
X170180000Y-91440000D01*
X129540000Y-76200000D02*
X124460000Y-81280000D01*
X167640000Y-81280000D02*
X160020000Y-81280000D01*
X129540000Y-96520000D02*
X165100000Y-96520000D01*
X170180000Y-83820000D02*
X167640000Y-81280000D01*
X170180000Y-91440000D02*
X170180000Y-83820000D01*
%TO.N,GND*%
X132080000Y-91440000D02*
X134620000Y-91440000D01*
X127000000Y-86360000D02*
X132080000Y-91440000D01*
X127000000Y-81280000D02*
X127000000Y-86360000D01*
X134620000Y-91440000D02*
X137160000Y-88900000D01*
X134620000Y-78740000D02*
X129540000Y-78740000D01*
X129540000Y-78740000D02*
X127000000Y-81280000D01*
%TO.N,+9V*%
X139700000Y-86360000D02*
X143268134Y-86360000D01*
X152400000Y-76200000D02*
X147320000Y-76200000D01*
X143268134Y-86360000D02*
X152400000Y-77228134D01*
X152400000Y-77228134D02*
X152400000Y-76200000D01*
%TO.N,/pin_7*%
X137160000Y-81280000D02*
X147320000Y-81280000D01*
X134620000Y-83820000D02*
X137160000Y-81280000D01*
%TO.N,/pin_3*%
X137160000Y-83820000D02*
X137160000Y-84848134D01*
X157480000Y-88900000D02*
X162560000Y-83820000D01*
X137160000Y-84848134D02*
X141211866Y-88900000D01*
X141211866Y-88900000D02*
X157480000Y-88900000D01*
%TD*%
M02*
