%TF.GenerationSoftware,KiCad,Pcbnew,(6.0.10)*%
%TF.CreationDate,2023-02-17T10:23:32-08:00*%
%TF.ProjectId,ExerciseII,45786572-6369-4736-9549-492e6b696361,rev?*%
%TF.SameCoordinates,Original*%
%TF.FileFunction,Legend,Top*%
%TF.FilePolarity,Positive*%
%FSLAX46Y46*%
G04 Gerber Fmt 4.6, Leading zero omitted, Abs format (unit mm)*
G04 Created by KiCad (PCBNEW (6.0.10)) date 2023-02-17 10:23:32*
%MOMM*%
%LPD*%
G01*
G04 APERTURE LIST*
%ADD10C,0.150000*%
%ADD11C,0.120000*%
G04 APERTURE END LIST*
D10*
%TO.C,C2*%
X139803333Y-90937142D02*
X139755714Y-90984761D01*
X139612857Y-91032380D01*
X139517619Y-91032380D01*
X139374761Y-90984761D01*
X139279523Y-90889523D01*
X139231904Y-90794285D01*
X139184285Y-90603809D01*
X139184285Y-90460952D01*
X139231904Y-90270476D01*
X139279523Y-90175238D01*
X139374761Y-90080000D01*
X139517619Y-90032380D01*
X139612857Y-90032380D01*
X139755714Y-90080000D01*
X139803333Y-90127619D01*
X140184285Y-90127619D02*
X140231904Y-90080000D01*
X140327142Y-90032380D01*
X140565238Y-90032380D01*
X140660476Y-90080000D01*
X140708095Y-90127619D01*
X140755714Y-90222857D01*
X140755714Y-90318095D01*
X140708095Y-90460952D01*
X140136666Y-91032380D01*
X140755714Y-91032380D01*
%TO.C,R1*%
X129882380Y-86526666D02*
X129406190Y-86860000D01*
X129882380Y-87098095D02*
X128882380Y-87098095D01*
X128882380Y-86717142D01*
X128930000Y-86621904D01*
X128977619Y-86574285D01*
X129072857Y-86526666D01*
X129215714Y-86526666D01*
X129310952Y-86574285D01*
X129358571Y-86621904D01*
X129406190Y-86717142D01*
X129406190Y-87098095D01*
X129882380Y-85574285D02*
X129882380Y-86145714D01*
X129882380Y-85860000D02*
X128882380Y-85860000D01*
X129025238Y-85955238D01*
X129120476Y-86050476D01*
X129168095Y-86145714D01*
%TO.C,D2*%
X154704404Y-72292380D02*
X154704404Y-71292380D01*
X154942500Y-71292380D01*
X155085357Y-71340000D01*
X155180595Y-71435238D01*
X155228214Y-71530476D01*
X155275833Y-71720952D01*
X155275833Y-71863809D01*
X155228214Y-72054285D01*
X155180595Y-72149523D01*
X155085357Y-72244761D01*
X154942500Y-72292380D01*
X154704404Y-72292380D01*
X155656785Y-71387619D02*
X155704404Y-71340000D01*
X155799642Y-71292380D01*
X156037738Y-71292380D01*
X156132976Y-71340000D01*
X156180595Y-71387619D01*
X156228214Y-71482857D01*
X156228214Y-71578095D01*
X156180595Y-71720952D01*
X155609166Y-72292380D01*
X156228214Y-72292380D01*
%TO.C,D1*%
X151661904Y-93712380D02*
X151661904Y-92712380D01*
X151900000Y-92712380D01*
X152042857Y-92760000D01*
X152138095Y-92855238D01*
X152185714Y-92950476D01*
X152233333Y-93140952D01*
X152233333Y-93283809D01*
X152185714Y-93474285D01*
X152138095Y-93569523D01*
X152042857Y-93664761D01*
X151900000Y-93712380D01*
X151661904Y-93712380D01*
X153185714Y-93712380D02*
X152614285Y-93712380D01*
X152900000Y-93712380D02*
X152900000Y-92712380D01*
X152804761Y-92855238D01*
X152709523Y-92950476D01*
X152614285Y-92998095D01*
%TO.C,R3*%
X164933333Y-85162380D02*
X164600000Y-84686190D01*
X164361904Y-85162380D02*
X164361904Y-84162380D01*
X164742857Y-84162380D01*
X164838095Y-84210000D01*
X164885714Y-84257619D01*
X164933333Y-84352857D01*
X164933333Y-84495714D01*
X164885714Y-84590952D01*
X164838095Y-84638571D01*
X164742857Y-84686190D01*
X164361904Y-84686190D01*
X165266666Y-84162380D02*
X165885714Y-84162380D01*
X165552380Y-84543333D01*
X165695238Y-84543333D01*
X165790476Y-84590952D01*
X165838095Y-84638571D01*
X165885714Y-84733809D01*
X165885714Y-84971904D01*
X165838095Y-85067142D01*
X165790476Y-85114761D01*
X165695238Y-85162380D01*
X165409523Y-85162380D01*
X165314285Y-85114761D01*
X165266666Y-85067142D01*
%TO.C,R4*%
X163183333Y-78302380D02*
X162850000Y-77826190D01*
X162611904Y-78302380D02*
X162611904Y-77302380D01*
X162992857Y-77302380D01*
X163088095Y-77350000D01*
X163135714Y-77397619D01*
X163183333Y-77492857D01*
X163183333Y-77635714D01*
X163135714Y-77730952D01*
X163088095Y-77778571D01*
X162992857Y-77826190D01*
X162611904Y-77826190D01*
X164040476Y-77635714D02*
X164040476Y-78302380D01*
X163802380Y-77254761D02*
X163564285Y-77969047D01*
X164183333Y-77969047D01*
%TO.C,U1*%
X141478095Y-77819880D02*
X141478095Y-78629404D01*
X141525714Y-78724642D01*
X141573333Y-78772261D01*
X141668571Y-78819880D01*
X141859047Y-78819880D01*
X141954285Y-78772261D01*
X142001904Y-78724642D01*
X142049523Y-78629404D01*
X142049523Y-77819880D01*
X143049523Y-78819880D02*
X142478095Y-78819880D01*
X142763809Y-78819880D02*
X142763809Y-77819880D01*
X142668571Y-77962738D01*
X142573333Y-78057976D01*
X142478095Y-78105595D01*
%TO.C,J1*%
X141906666Y-62952380D02*
X141906666Y-63666666D01*
X141859047Y-63809523D01*
X141763809Y-63904761D01*
X141620952Y-63952380D01*
X141525714Y-63952380D01*
X142906666Y-63952380D02*
X142335238Y-63952380D01*
X142620952Y-63952380D02*
X142620952Y-62952380D01*
X142525714Y-63095238D01*
X142430476Y-63190476D01*
X142335238Y-63238095D01*
%TO.C,R2*%
X130882380Y-81446666D02*
X130406190Y-81780000D01*
X130882380Y-82018095D02*
X129882380Y-82018095D01*
X129882380Y-81637142D01*
X129930000Y-81541904D01*
X129977619Y-81494285D01*
X130072857Y-81446666D01*
X130215714Y-81446666D01*
X130310952Y-81494285D01*
X130358571Y-81541904D01*
X130406190Y-81637142D01*
X130406190Y-82018095D01*
X129977619Y-81065714D02*
X129930000Y-81018095D01*
X129882380Y-80922857D01*
X129882380Y-80684761D01*
X129930000Y-80589523D01*
X129977619Y-80541904D01*
X130072857Y-80494285D01*
X130168095Y-80494285D01*
X130310952Y-80541904D01*
X130882380Y-81113333D01*
X130882380Y-80494285D01*
%TO.C,C1*%
X131670833Y-74807142D02*
X131623214Y-74854761D01*
X131480357Y-74902380D01*
X131385119Y-74902380D01*
X131242261Y-74854761D01*
X131147023Y-74759523D01*
X131099404Y-74664285D01*
X131051785Y-74473809D01*
X131051785Y-74330952D01*
X131099404Y-74140476D01*
X131147023Y-74045238D01*
X131242261Y-73950000D01*
X131385119Y-73902380D01*
X131480357Y-73902380D01*
X131623214Y-73950000D01*
X131670833Y-73997619D01*
X132623214Y-74902380D02*
X132051785Y-74902380D01*
X132337500Y-74902380D02*
X132337500Y-73902380D01*
X132242261Y-74045238D01*
X132147023Y-74140476D01*
X132051785Y-74188095D01*
D11*
%TO.C,C2*%
X140231252Y-88165000D02*
X139708748Y-88165000D01*
X140231252Y-89635000D02*
X139708748Y-89635000D01*
%TO.C,R1*%
X131815000Y-86587064D02*
X131815000Y-86132936D01*
X130345000Y-86587064D02*
X130345000Y-86132936D01*
%TO.C,D2*%
X157042500Y-72525000D02*
X152982500Y-72525000D01*
X152982500Y-72525000D02*
X152982500Y-74795000D01*
X152982500Y-74795000D02*
X157042500Y-74795000D01*
%TO.C,D1*%
X154860000Y-90305000D02*
X150800000Y-90305000D01*
X154860000Y-92575000D02*
X154860000Y-90305000D01*
X150800000Y-92575000D02*
X154860000Y-92575000D01*
%TO.C,R3*%
X164872936Y-87095000D02*
X165327064Y-87095000D01*
X164872936Y-85625000D02*
X165327064Y-85625000D01*
%TO.C,R4*%
X163577064Y-75465000D02*
X163122936Y-75465000D01*
X163577064Y-76935000D02*
X163122936Y-76935000D01*
%TO.C,U1*%
X142240000Y-79207500D02*
X144190000Y-79207500D01*
X142240000Y-79207500D02*
X138790000Y-79207500D01*
X142240000Y-84327500D02*
X140290000Y-84327500D01*
X142240000Y-84327500D02*
X144190000Y-84327500D01*
%TO.C,J1*%
X137160000Y-72390000D02*
X147320000Y-72390000D01*
X147320000Y-72390000D02*
X147320000Y-64770000D01*
X147320000Y-71120000D02*
X137160000Y-71120000D01*
X137160000Y-64770000D02*
X137160000Y-72390000D01*
X147320000Y-64770000D02*
X137160000Y-64770000D01*
%TO.C,R2*%
X132815000Y-81507064D02*
X132815000Y-81052936D01*
X131345000Y-81507064D02*
X131345000Y-81052936D01*
%TO.C,C1*%
X129352500Y-75265000D02*
X129352500Y-77135000D01*
X129352500Y-77135000D02*
X133437500Y-77135000D01*
X133437500Y-75265000D02*
X129352500Y-75265000D01*
%TD*%
M02*
